<?xml version="1.0" encoding="utf-8"?>
<!-- Generator: Adobe Illustrator 23.0.6, SVG Export Plug-In . SVG Version: 6.00 Build 0)  -->
<svg version="1.1" id="Capa_1" xmlns="http://www.w3.org/2000/svg" xmlns:xlink="http://www.w3.org/1999/xlink" x="0px" y="0px"
	 viewBox="0 0 5 5" style="enable-background:new 0 0 5 5;" xml:space="preserve">
<polygon points="1.81,4.79 2.84,4.79 2.8,2.98 3.38,2.52 4.39,2.8 3.82,2.44 4.78,2.05 3.17,2.17 3.36,1.35 3.83,1.18 4.52,1.42 
	4.02,1.09 4.41,0.82 3.38,1.09 3.43,0.21 2.76,1.71 2.29,1.15 2.39,1.55 1.79,1.57 2.49,1.77 2.75,2.02 2.32,2.61 1.27,1.64 
	1.32,0.71 1.07,1.31 0.58,0.96 1.32,2.19 0.22,2.02 1.59,2.53 2.01,3.11 "/>
</svg>
