<svg id="Capa_1" data-name="Capa 1" xmlns="http://www.w3.org/2000/svg" viewBox="0 0 106 100.7"><defs><style>.cls-1{fill:#fff;}</style></defs><title>logo</title><path class="cls-1" d="M78.3,34.8,62.7,36l1.9-8,4.5-1.6,6.7,2.3-4.9-3.2,3.8-2.7-10,2.7.5-8.6L58.7,31.5l-4.6-5.4,1,3.9H49.3l6.8,2,2.5,2.4-4.1,5.7L44.3,30.8l.5-9-2.5,5.8-4.8-3.4,7.3,11.9L34.1,34.5l13.2,4.9,4.1,5.7L49.5,60.6l1,.3h.6a8.6,8.6,0,0,1,3.2.1l1.2.4,2.2-.5,1.8-.2-.4-16.7,5.6-4.5,9.9,2.7L69,38.6Z" transform="translate(0 0)"/><path class="cls-1" d="M21.8,72.7V70.4a7.6,7.6,0,0,1,.1-1.5V65.8c0-.4-.1-.9-.1-1.3s0-.2.1-.2l.3-.2h.7a.4.4,0,0,1,.1.3v1.3c0,.3,0,.4.1.5a1.7,1.7,0,0,1,.7-.8l1-.7,1.3-.4a2.5,2.5,0,0,1,1.2.1,1.4,1.4,0,0,1,1,.5,2.3,2.3,0,0,1,.6,1.2l1.1-.8,1.2-.7,1.4-.4h1.2a1.9,1.9,0,0,1,1,.5,2.3,2.3,0,0,1,.6,1.2l.3,6.9H34.4c-.2,0-.3,0-.3-.1V70.1a7.6,7.6,0,0,0,.1-1.5V67.2c0-.4-.1-.8-.1-1.1l-.3-.5-1-.2-1.1.2a3.8,3.8,0,0,0-1.1.8,3.2,3.2,0,0,0-.8,1.3c-.2.6-.4,1.2-.6,2a13.6,13.6,0,0,0-.1,2.9.8.8,0,0,1-.4.4h-1c-.2-.1-.2-.2-.2-.3a7.7,7.7,0,0,0,.2-1.5,9.2,9.2,0,0,0,.1-1.6,6.6,6.6,0,0,0-.1-1.5c0-.5-.1-.9-.1-1.3l-.3-.9-.3-.4a3.4,3.4,0,0,0-1.5.2,2.8,2.8,0,0,0-1,.9,5.4,5.4,0,0,0-.7,1.3,7.6,7.6,0,0,0-.3,1.6,8.8,8.8,0,0,0-.2,1.6v1.7l-.5.2H22A.2.2,0,0,1,21.8,72.7Z" transform="translate(0 0)"/><path class="cls-1" d="M44.3,69.9a4,4,0,0,1-1,1.2,4.7,4.7,0,0,1-1.2.9,3.5,3.5,0,0,1-1.4.6H38.4l-.7-.2-.5-.4a1.4,1.4,0,0,1-.2-.7,5,5,0,0,1,.1-1.7,5.3,5.3,0,0,1,.8-1.7,6.1,6.1,0,0,1,1.2-1.6l1.5-1.2a6.5,6.5,0,0,1,1.7-.8,3,3,0,0,1,1.6-.1,1.3,1.3,0,0,1,1,.4,2.8,2.8,0,0,1,.4,1.1,3.4,3.4,0,0,1,.2,1.5,10.9,10.9,0,0,1,.1,1.8v1.9a8.8,8.8,0,0,0,.2,1.7v.2l-.4.2h-.4a1.2,1.2,0,0,1-.5-.5,2,2,0,0,1-.1-.5V69.9Zm-.9-4.4-1.2.2a6.7,6.7,0,0,0-1.2.6l-1.1.9L39,68.4a3.7,3.7,0,0,0-.5,1.1,1.3,1.3,0,0,0-.2,1,1,1,0,0,0,.3.8,1.3,1.3,0,0,0,.9.5,3.3,3.3,0,0,0,1.6-.5,4.9,4.9,0,0,0,1.4-1.1,7.1,7.1,0,0,0,1-1.4,7.7,7.7,0,0,0,.6-1.5,2.4,2.4,0,0,0,0-1.2A.9.9,0,0,0,43.4,65.5Z" transform="translate(0 0)"/><path class="cls-1" d="M47.5,72.7V70.4c0-.5.1-1,.1-1.5V65.8c0-.4-.1-.9-.1-1.3s0-.2.1-.2l.3-.2h.7c.1,0,.1.1.1.3v1.3c0,.3,0,.4.1.5s.4-.5.7-.8a4.1,4.1,0,0,1,1.1-.7l1.2-.4a2.4,2.4,0,0,1,1.2.1,1.2,1.2,0,0,1,1,.5,2.3,2.3,0,0,1,.6,1.2l1.1-.8,1.2-.7,1.4-.4h1.2a1.9,1.9,0,0,1,1,.5,2.3,2.3,0,0,1,.6,1.2l.3,6.9H60.1c-.2,0-.3,0-.3-.1V71.5a7.1,7.1,0,0,1,.1-1.4V67.2c0-.4-.1-.8-.1-1.1l-.3-.5-1-.2-1.1.2a2.5,2.5,0,0,0-1,.8,3.3,3.3,0,0,0-.9,1.3c-.2.6-.4,1.2-.6,2a26.2,26.2,0,0,0-.1,2.9.8.8,0,0,1-.4.4h-1c-.2-.1-.2-.2-.2-.3a7.7,7.7,0,0,0,.2-1.5,9.2,9.2,0,0,0,.1-1.6,6.6,6.6,0,0,0-.1-1.5c0-.5-.1-.9-.1-1.3a4.6,4.6,0,0,0-.3-.9l-.3-.4a3.4,3.4,0,0,0-1.5.2,2.8,2.8,0,0,0-1,.9,3.1,3.1,0,0,0-.6,1.3,7.5,7.5,0,0,0-.4,1.6A8.8,8.8,0,0,0,49,71v1.7l-.5.2h-.8Z" transform="translate(0 0)"/><path class="cls-1" d="M63,70.5V68.4a5.7,5.7,0,0,1,.1-1.3c.1-.5.1-.9.2-1.2l.3-1.1a1.6,1.6,0,0,1,.3-.6.6.6,0,0,1,.7-.1.6.6,0,0,1,.3.6,4.4,4.4,0,0,1-.2,1c-.1.4-.2.8-.3,1.4a7.8,7.8,0,0,0-.2,1.6,5,5,0,0,0,.1,1.7,1,1,0,0,0,.5.8,1.6,1.6,0,0,0,.9.3h1.2a3.1,3.1,0,0,0,1.3-.3l1-.5.8-.8V64.2a.6.6,0,0,1,.7-.2l.6.3.4,8.4-.3.2-.4.2h-.3c-.1-.1-.2-.1-.3-.3l-.2-1.3-.8.5-1.4.5a4,4,0,0,1-1.5.3,4.3,4.3,0,0,1-1.6,0,2.9,2.9,0,0,1-1.2-.7A2.6,2.6,0,0,1,63,70.5ZM66.5,62a.7.7,0,0,1-.5-.4.6.6,0,0,1,.1-.4.8.8,0,0,1,.4-.4.4.4,0,0,1,.4-.2.9.9,0,0,1,.7.8c0,.2,0,.3-.1.4l-.3.2h-.7Zm2.3,0c-.3-.2-.5-.3-.5-.5a.6.6,0,0,1,.1-.4c0-.2.2-.3.3-.4l.4-.2a.6.6,0,0,1,.6.3l.2.5c0,.2-.1.3-.1.4l-.3.2h-.7Z" transform="translate(0 0)"/><path class="cls-1" d="M73.1,61q0-.2.3-.3l.3-.2h.4l.3.3.3,11.6a.5.5,0,0,1-.2.4h-.8l-.3-.3Z" transform="translate(0 0)"/><path class="cls-1" d="M76.4,61q0-.2.3-.3l.3-.2h.4l.3.3L78,72.4a.5.5,0,0,1-.2.4H77l-.3-.3Z" transform="translate(0 0)"/><path class="cls-1" d="M80.7,73h-.8l-.4-.2V64.5c.4-.2.6-.3.8-.2s.3.1.4.3a1.9,1.9,0,0,1,.1.8,1.9,1.9,0,0,1,.1.8,16.8,16.8,0,0,1,2.6-1.6,5.4,5.4,0,0,1,1.9-.5,2.1,2.1,0,0,1,1.2.4,4.1,4.1,0,0,1,.7,1.1,7.5,7.5,0,0,1,.4,1.6c0,.6.1,1.3.1,1.9V71c0,.7.1,1.3.1,1.9l-.5.2h-.9a3.8,3.8,0,0,0-.1-1V66.8c-.1-.3-.1-.6-.2-.8l-.4-.4H85l-1,.2-1.1.4-1,.6a3.6,3.6,0,0,0-.9.8v5.3Z" transform="translate(0 0)"/><path class="cls-1" d="M103.8,55.9l.7-2.5.2-2.5s-1.2-.5.8-4.6-3.6-13.6-4.3-14.1-3.6-5.2-3.2-6-.6-2.8-.7-3.2-2.5-.9-2.5-.9a5.9,5.9,0,0,1-.3-3,5.9,5.9,0,0,0-1.9-4.4c-.7-.7-2.8.5-3.6.5a4,4,0,0,1-1.9-.7l-1.7-.9H83.9l-3.2-3L78.6,8.9c-.6-.6-2,.8-3.1,1.1s-2.4-1.5-2.4-1.5-7.7-6.1-9.8-7.2-5.6.4-6.8,1.3-3,.1-3,.1-.7-1-3.4-2.2-2.9.2-3.9,1.3-3.8,1-3.8,1H38.1a12.6,12.6,0,0,1-4.7,1.8c-2,0-3.7,1.9-4.3,3.5s-4,2.5-4,2.5c-7.6,1.9-9.3,6.9-9.8,7.7s-2.6.7-3.2,1.2-3.2,9.7-3.2,9.7S4.7,28.8,6,31.5s-.1,4.1-.1,4.1c-5.1,3.9-2.7,7-1.1,8.8s.4,4-3.6,8.1,3.1,6,4.2,7.9-1.3,4.5-1.3,4.5,2,.9,2.2,5.7,4.8,6.7,4.8,6.7,5.2,4.2,5,7.4,4,4.7,6.4,4.5,9.1,1.1,9.1,1.1C41.1,95.8,48,96.2,48,96.2c10.4,6.3,13,4,14.6,4.4S64.5,99,64.5,99l7.4.9a3.1,3.1,0,0,0,1.2-1.7c.1-.9,5-2.3,7.4-4a9.9,9.9,0,0,0,4-4.6,17.3,17.3,0,0,1,7-6.6c3-1.4,6.3-5.4,7-6.2s.9-3.9.9-3.9l2.1-3.1,3.6-6.5s1.3-3,.2-4.4A9,9,0,0,1,103.8,55.9ZM100,54.5c-2.5,9.3-3.6,10.6-3.6,10.6s-2.1,4.8-2.2,7.4a5.1,5.1,0,0,1-1.6,3.8S85,83,83,83.6s-3.1-.1-4.4.6-8.6,5.7-9.3,5.9-6.9,2.4-9.1,2.8-13.4,1.5-16.3.9-7.8-2.7-7.8-2.7a37.8,37.8,0,0,0-3.8-1.8l2.4-5.2,1-1.5-1.3,1.9L33,86.4l-2.5,2.4-1.3-.3c-2.4-.1-9.5-11.4-9.5-11.4s-2-5.5-4.3-7.4S8.9,60.4,8.9,54.9,9,46.7,10.1,45a1.9,1.9,0,0,0,.4-.9L11,40l4.9-1.5L20.8,40l4.1-.4,4.9,1.3-4.6-2.1H20.8l-4.1-2.3h0L14.8,35,11,34.2c0-1.2.3-2.7,1-3.2s6.9-9.4,7.8-9.8,8-6.1,7.8-6.9,1.7-6.6,19.7-5.9a22.2,22.2,0,0,0,5.6.6l1.7,2.8,1.3,5.6-.2-8.7,1-.3c3.7-1.5,10.1-1.2,13.9.5s14.1,6.4,17.2,11.7a44,44,0,0,1,5.8,10.7c2.2,6,4,7.1,4,7.1a18.6,18.6,0,0,1,2.8,7.5l-2,1.3-7.9,2.3,5.5-.3,4.7,1.1A23,23,0,0,1,100,54.5Z" transform="translate(0 0)"/></svg>